<?xml version="1.0" encoding="utf-8"?>
<!DOCTYPE svg PUBLIC "-//W3C//DTD SVG 1.1//EN" "http://www.w3.org/Graphics/SVG/1.1/DTD/svg11.dtd">
<svg version="1.1" id="Layer_1" xmlns="http://www.w3.org/2000/svg" xmlns:xlink="http://www.w3.org/1999/xlink" x="0px" y="0px"
	 viewBox="0 0 612.1 158.4" enable-background="new 0 0 612.1 158.4" xml:space="preserve">
	<g id="negative_space_play_button">
		<path fill="#FF6D00" d="M4.1,121.5c-2.2,0-4.1-1.7-4.1-4.1v-10.3c0-3.7,0-4,2.7-7L44,54.3c1-1.3,0.5-3-1.3-3H4.2
			c-2.2,0-4.1-1.7-4.1-4.1v-9.4c0-2.2,1.7-4.1,4.1-4.1h63.7c2.2,0,4.1,1.7,4.1,4.1v11c0,4-0.3,4.4-2.7,7l-41,45.1
			c-1.4,1.7-0.8,3,1.3,3h38.6c2.2,0,4.1,1.7,4.1,4.1v9.4c0,2.2-1.7,4.1-4.1,4.1H4.1L4.1,121.5z"/>
		<path fill="#FF6D00" d="M129,132.8c-0.8,2.1-2.2,5.2-3.3,7.3c0,0-9.9,18.3-25.3,18.3c-7,0-12.2,0-12.2,0c-2.2,0-4.1-1.7-4.1-4.1
			v-10.2c0-2.2,1.7-4.1,4.1-4.1c0,0,3.7,0,7.9,0c4,0,7.5-3.7,7.5-3.7c1.4-1.4,3.5-4.6,4.4-6.7l2.1-4.6c0.8-2.1,0.8-5.6,0-7.5
			L78.2,37.6c-0.8-2.1,0.3-3.8,2.5-3.8H96c4.1,0,4.6,1.7,5.6,3.8l20.3,55.6c0.6,1.1,2.4,1,2.7,0L144,37.6c0.6-2.1,1.4-3.8,5.2-3.8
			h13.5c2.2,0,3.3,1.7,2.7,3.8L129,132.8z"/>
		<path fill="#FF6D00" d="M254,113.6c-9.4,7-20.7,7.9-32.3,7.9h-43.5c-2.5,0-4.4-2.1-4.4-4.4V6.6c0-2.5,2.1-4.4,4.4-4.4h43.5
			c9.7,0,19.7,1.4,28,6.7c8.9,5.7,13.8,15.6,13.8,25.9c0,7.6-2.9,16.2-9.1,21.8c-2.2,2.1-2.1,5.2,0.2,7c7.6,5.7,11.4,14.5,11.4,23.5
			C266.2,97.4,262.5,107,254,113.6z M222.5,20.9h-22.6c-2.5,0-4.4,2.1-4.4,4.4v21c0,2.5,2.1,4.4,4.4,4.4h23c9.9,0,18.3-3.5,18.3-14.8
			C241.2,24.4,232.3,20.9,222.5,20.9z M223.1,68.9h-23.2c-2.5,0-4.4,2.1-4.4,4.4v24.2c0,2.5,2.1,4.4,4.4,4.4h22.6
			c10.3,0,21.3-3.7,21.3-15.9C243.8,73.4,234.7,68.9,223.1,68.9z"/>
		<path fill="#FF6D00" d="M520.6,121.5c-3.5,0-4.4-0.6-6.2-3.3l-20.5-31.5c-1.3-1.7-3.5-2.1-4.9-0.5l-8.6,9.4c-2.4,2.9-2.9,3.5-2.9,7
			v14.9c0,2.2-1.7,4.1-4.1,4.1h-13.2c-2.2,0-4.1-1.7-4.1-4.1V4.1c0-2.2,1.7-4.1,4.1-4.1h13.2c2.2,0,4.1,1.7,4.1,4.1v61.5
			c0,2.2,1.3,2.7,2.9,1.1l28-29.7c3-3,3.2-3,6.8-3h18.6c2.2,0,2.9,1.3,1.3,3L509,64.8c-1.4,1.7-1.7,4.4-0.6,6.4l30.5,47
			c1.3,1.7,0.5,3.3-1.7,3.3L520.6,121.5L520.6,121.5z"/>
		<path fill="#FF6D00" d="M604.2,113.6c-7.2,7-18.3,10.2-30.4,10.2c-11.3,0-21.3-3.2-28.6-10.2c-4.1-4.1-7.9-9.7-9.1-16.2
			c-0.5-2.1,1.4-4.1,3.5-4.1h12.9c1.7,0,3.2,1.3,3.5,2.9c0.6,3,2.4,5.7,4.4,7.5c3.3,2.7,7.3,4,13.5,4c7.2,0,18-1.4,18-11.1
			c0-5.1-3.3-8.4-8.9-9.4c-7.9-1.1-16.7-1.7-24.5-3.3c-12.1-2.5-20.3-12.2-20.3-23.4c0-8.9,3.8-15.3,9.1-19.7
			c6.5-5.6,15.9-8.7,26.9-8.7c10.6,0,21.3,3.3,27.7,10.3c3.7,4,6.4,8.7,7.3,13.7c0.5,2.2-1.3,4.4-3.5,4.4h-13c-1.7,0-3.2-1.1-3.5-2.9
			c-0.6-2.1-1.7-4-3.2-5.6c-2.5-2.5-7.2-4.1-11.4-4.1c-3.2,0-5.9,0-9.1,1.4c-3.8,1.4-6.8,4.8-6.8,9.4c0,6.2,5.6,7.9,10.3,8.7
			c7.9,1,10.3,1.1,18.9,2.5c13.8,2.2,24.2,11,24.2,24.8C612,102.8,608.8,109,604.2,113.6z"/>
		<path fill="#FF6D00" d="M314.5,123.4c-24.5,0.3-41.6-19.1-41.2-42.4c0.6-23,18.4-40.8,42.1-40.8c23.8,0,40.7,17.5,40.7,42.4
			C356.1,106.1,338.3,123.6,314.5,123.4z M314.7,104.7c12.2,0,21.9-8.4,22.1-22.9c0.3-12.4-9.4-22.4-21.5-22.6
			c-13.2-0.2-22.7,9.1-22.6,22.7C293.2,95.9,301.5,104.2,314.7,104.7z"/>
		<path fill="#FF6D00" d="M406.2,40.1c-23.7,0-41.5,17.6-42.1,40.8c-0.6,23.5,16.5,42.7,41.2,42.4c23.8,0.2,41.3-17.3,41.6-40.8
			C446.9,57.6,430,40.1,406.2,40.1z M425,88.3l-25.7,14.9c-6,3.5-11.3,0.5-11.3-6.5V66.8c0-7,4.9-10,11.3-6.5L425,75.2
			C431,78.9,431,84.8,425,88.3z"/>
	</g>
</svg>
